<svg width="98" height="81" viewBox="0 0 98 81" fill="none" xmlns="http://www.w3.org/2000/svg">
  <circle cx="5.15454" cy="5.15454" r="5.15454" fill="#6924FF" fill-opacity="0.06" />
  <circle cx="27.2454" cy="5.15454" r="5.15454" fill="#6924FF" fill-opacity="0.06" />
  <circle cx="47.8635" cy="5.15454" r="5.15454" fill="#6924FF" fill-opacity="0.06" />
  <circle cx="69.9543" cy="5.15454" r="5.15454" fill="#6924FF" fill-opacity="0.06" />
  <circle cx="92.0452" cy="5.15454" r="5.15454" fill="#6924FF" fill-opacity="0.06" />
  <circle cx="5.15454" cy="28.7183" r="5.15454" fill="#6924FF" fill-opacity="0.06" />
  <circle cx="27.2454" cy="28.7181" r="5.15454" fill="#6924FF" fill-opacity="0.06" />
  <circle cx="47.8635" cy="28.7181" r="5.15454" fill="#6924FF" fill-opacity="0.06" />
  <circle cx="69.9543" cy="28.7181" r="5.15454" fill="#6924FF" fill-opacity="0.06" />
  <circle cx="92.0452" cy="28.7181" r="5.15454" fill="#6924FF" fill-opacity="0.06" />
  <circle cx="5.15454" cy="52.2817" r="5.15454" fill="#6924FF" fill-opacity="0.06" />
  <circle cx="27.2454" cy="52.2819" r="5.15454" fill="#6924FF" fill-opacity="0.06" />
  <circle cx="47.8635" cy="52.2819" r="5.15454" fill="#6924FF" fill-opacity="0.06" />
  <circle cx="69.9543" cy="52.2819" r="5.15454" fill="#6924FF" fill-opacity="0.06" />
  <circle cx="92.0452" cy="52.2819" r="5.15454" fill="#6924FF" fill-opacity="0.06" />
  <circle cx="5.15454" cy="75.8455" r="5.15454" fill="#6924FF" fill-opacity="0.06" />
  <circle cx="27.2454" cy="75.8455" r="5.15454" fill="#6924FF" fill-opacity="0.06" />
  <circle cx="47.8635" cy="75.8455" r="5.15454" fill="#6924FF" fill-opacity="0.06" />
  <circle cx="69.9543" cy="75.8455" r="5.15454" fill="#6924FF" fill-opacity="0.06" />
  <circle cx="92.0452" cy="75.8455" r="5.15454" fill="#6924FF" fill-opacity="0.06" />
</svg>