<svg width="25" height="22" viewBox="0 0 25 22" fill="none" xmlns="http://www.w3.org/2000/svg">
  <path fill-rule="evenodd" clip-rule="evenodd"
    d="M8.28934 0H17.4045C21.599 0 25.0005 3.07862 25.0005 6.875V15.125C25.0005 18.9214 21.599 22 17.4045 22H8.28934C4.09484 22 0.693359 18.9214 0.693359 15.125V6.875C0.693359 3.07862 4.09484 0 8.28934 0ZM17.4046 19.9375C20.3367 19.9375 22.7218 17.7787 22.7218 15.125V6.875C22.7218 4.22125 20.3367 2.0625 17.4046 2.0625H8.28938C5.35732 2.0625 2.97217 4.22125 2.97217 6.875V15.125C2.97217 17.7787 5.35732 19.9375 8.28938 19.9375H17.4046Z"
    fill="white" />
  <path fill-rule="evenodd" clip-rule="evenodd"
    d="M6.77002 11C6.77002 7.96263 9.49087 5.5 12.8467 5.5C16.2026 5.5 18.9235 7.96263 18.9235 11C18.9235 14.0374 16.2026 16.5 12.8467 16.5C9.49087 16.5 6.77002 14.0374 6.77002 11ZM9.04871 11C9.04871 12.8948 10.7533 14.4375 12.8468 14.4375C14.9403 14.4375 16.6449 12.8948 16.6449 11C16.6449 9.10388 14.9403 7.5625 12.8468 7.5625C10.7533 7.5625 9.04871 9.10388 9.04871 11Z"
    fill="white" />
  <ellipse cx="19.3792" cy="5.08737" rx="0.809875" ry="0.732875" fill="white" />
</svg>