<svg width="183" height="31" viewBox="0 0 183 31" fill="none" xmlns="http://www.w3.org/2000/svg">
  <path
    d="M29.8594 7.48501C28.9183 7.48718 27.9865 7.67045 27.1149 8.02479C26.1263 3.42892 22.3726 0 17.8775 0C12.7027 0 8.49079 4.54961 8.3878 10.1942C7.92315 10.0891 7.44826 10.0356 6.97182 10.0348C3.12033 10.0348 0 13.4535 0 17.6689C0 21.1236 2.09566 24.0332 4.96369 24.9792C5.55048 25.1959 4.95041 24.9885 6.79675 25.3082C8.64309 25.6278 27.0299 25.7667 28.4986 25.6278C29.9672 25.489 31.684 25.1658 32.336 24.8918C35.6314 23.7608 38 20.3833 38 16.394C38 11.4794 34.3493 7.48501 29.8594 7.48501ZM30.9341 22.6408C30.1498 22.9143 29.3288 23.0685 28.4986 23.0984C22.124 23.3708 15.7392 22.9904 9.35955 23.1292C8.16161 23.185 6.96799 22.9499 5.88105 22.444C4.79412 21.9381 4.08973 21.5254 3.36233 20.5735C2.60777 19.2456 2.35563 17.6914 2.65176 16.1935C3.06883 14.2966 4.54558 12.6565 6.63094 12.4303C7.32345 12.3645 8.02061 12.2254 8.64422 12.5331C8.87178 12.6198 9.11562 12.6555 9.35852 12.6377C9.60141 12.6199 9.83744 12.5491 10.0499 12.4303C10.349 12.2094 10.5677 11.8972 10.6729 11.5409C10.9541 10.7398 10.938 10.5958 10.9328 9.74696C11.0341 8.65531 11.5678 6.64548 12.1827 5.73713C13.1503 4.32843 14.6265 3.34832 16.3019 3.00223C17.2408 2.80861 18.2092 2.80531 19.1494 2.99253C20.0896 3.17975 20.9826 3.55366 21.7753 4.09208C24.6279 6.01474 25.0759 9.26886 25.1377 9.74696C25.1619 9.94273 25.2382 10.1284 25.3587 10.2848C25.4791 10.4412 25.6392 10.5626 25.8225 10.6363C25.9889 10.6942 26.167 10.7105 26.3412 10.6836C26.5154 10.6567 26.6803 10.5875 26.8214 10.4821C27.6726 10.0418 28.6175 9.81261 29.5762 9.81379C30.4968 9.85742 31.3976 10.0953 32.2195 10.5118C33.0413 10.9282 33.7655 11.5138 34.3442 12.23C35.3276 13.4409 35.6861 14.8351 35.703 16.394C35.7106 17.7176 35.1045 19.172 34.3847 20.2835C34.7187 19.7134 34.3023 20.4121 34.3847 20.2835C33.525 21.4485 32.3115 22.1908 30.9341 22.6408Z"
    fill="url(#paint0_linear)" />
  <path
    d="M22.9505 17.8143L17.0696 9.63045C16.8712 9.38563 16.5869 9.2254 16.2745 9.18232C15.9621 9.13924 15.645 9.21655 15.3876 9.39853C15.1303 9.58052 14.952 9.85353 14.8891 10.1621C14.8261 10.4706 14.8832 10.7915 15.0487 11.0596L17.5759 14.5769L14.7333 17.8385C14.6006 17.956 14.4946 18.1005 14.4223 18.2622C14.35 18.424 14.3132 18.5993 14.3143 18.7764C14.3153 18.9535 14.3542 19.1283 14.4284 19.2892C14.5026 19.4501 14.6104 19.5934 14.7444 19.7094C14.8785 19.8254 15.0359 19.9115 15.2059 19.9619C15.376 20.0123 15.5549 20.0258 15.7306 20.0017C15.9064 19.9775 16.0749 19.9161 16.2249 19.8217C16.375 19.7273 16.5031 19.6019 16.6007 19.4541L19.0511 16.6489L20.9193 19.2429C21.0139 19.3755 21.1338 19.4882 21.2721 19.5745C21.4104 19.6608 21.5643 19.7191 21.7252 19.746C21.886 19.7729 22.0506 19.7679 22.2095 19.7313C22.3683 19.6946 22.5184 19.6271 22.6511 19.5325C22.9156 19.3417 23.0949 19.0552 23.1508 18.7343C23.2068 18.4133 23.1349 18.0832 22.9505 17.8143Z"
    fill="url(#paint1_linear)" />
  <path
    d="M54.456 23.336C59.28 23.336 63.192 19.544 63.192 14.6C63.192 9.656 59.28 5.864 54.456 5.864C49.632 5.864 45.72 9.656 45.72 14.6C45.72 19.544 49.632 23.336 54.456 23.336ZM54.456 19.592C51.72 19.592 49.56 17.6 49.56 14.6C49.56 11.6 51.72 9.608 54.456 9.608C57.192 9.608 59.352 11.6 59.352 14.6C59.352 17.6 57.192 19.592 54.456 19.592ZM68.5249 14.504C68.5249 14.072 68.9089 13.832 69.5329 13.832C70.3249 13.832 70.8049 14.264 71.1409 14.888L74.2129 13.232C73.2049 11.528 71.4769 10.664 69.5329 10.664C67.0369 10.664 64.8289 11.984 64.8289 14.6C64.8289 18.752 70.7329 18.056 70.7329 19.376C70.7329 19.856 70.3009 20.12 69.4369 20.12C68.3809 20.12 67.7089 19.616 67.3969 18.704L64.2769 20.48C65.2129 22.424 67.0369 23.336 69.4369 23.336C72.0289 23.336 74.4289 22.16 74.4289 19.4C74.4289 14.96 68.5249 15.872 68.5249 14.504ZM81.8691 23.336C85.3971 23.336 88.2291 20.576 88.2291 17C88.2291 13.424 85.3971 10.664 81.8691 10.664C78.3411 10.664 75.5091 13.424 75.5091 17C75.5091 20.576 78.3411 23.336 81.8691 23.336ZM81.8691 19.832C80.3091 19.832 79.1091 18.704 79.1091 17C79.1091 15.296 80.3091 14.168 81.8691 14.168C83.4291 14.168 84.6291 15.296 84.6291 17C84.6291 18.704 83.4291 19.832 81.8691 19.832ZM103.705 10.664C102.001 10.664 100.897 11.288 100.225 12.248C99.5533 11.24 98.4973 10.664 97.0813 10.664C95.4733 10.664 94.4173 11.288 93.8653 12.104V11H90.2653V23H93.8653V16.232C93.8653 14.816 94.5373 13.976 95.7373 13.976C96.8893 13.976 97.4653 14.744 97.4653 15.944V23H101.065V16.232C101.065 14.816 101.737 13.976 102.937 13.976C104.089 13.976 104.665 14.744 104.665 15.944V23H108.265V15.632C108.265 12.632 106.465 10.664 103.705 10.664ZM123.692 11L121.964 17.432L120.092 11H116.732L114.86 17.432L113.132 11H109.292L113.132 23H116.492L118.412 16.592L120.332 23H123.692L127.532 11H123.692ZM137.204 11V12.128C136.412 11.216 135.236 10.664 133.628 10.664C130.484 10.664 127.892 13.424 127.892 17C127.892 20.576 130.484 23.336 133.628 23.336C135.236 23.336 136.412 22.784 137.204 21.872V23H140.804V11H137.204ZM134.348 19.928C132.692 19.928 131.492 18.8 131.492 17C131.492 15.2 132.692 14.072 134.348 14.072C136.004 14.072 137.204 15.2 137.204 17C137.204 18.8 136.004 19.928 134.348 19.928ZM147.045 13.136V11H143.445V23H147.045V17.576C147.045 15.2 149.157 14.6 150.645 14.84V10.76C149.133 10.76 147.525 11.528 147.045 13.136ZM155.192 18.44H163.712C163.808 17.984 163.856 17.504 163.856 17C163.856 13.376 161.264 10.664 157.76 10.664C153.968 10.664 151.376 13.424 151.376 17C151.376 20.576 153.92 23.336 158.024 23.336C160.304 23.336 162.08 22.496 163.256 20.864L160.376 19.208C159.896 19.736 159.056 20.12 158.072 20.12C156.752 20.12 155.648 19.688 155.192 18.44ZM155.12 15.752C155.456 14.528 156.368 13.856 157.736 13.856C158.816 13.856 159.896 14.36 160.28 15.752H155.12Z"
    fill="#FFFFFF" />
  <defs>
    <linearGradient id="paint0_linear" x1="42.1759" y1="0.544924" x2="-1.63628" y2="29.3156"
      gradientUnits="userSpaceOnUse">
      <stop stop-color="#0F9BE8" />
      <stop offset="1" stop-color="#6924FF" />
    </linearGradient>
    <linearGradient id="paint1_linear" x1="457.497" y1="703.084" x2="608.517" y2="711.719"
      gradientUnits="userSpaceOnUse">
      <stop stop-color="#0B78FF" />
      <stop offset="1" stop-color="#5000FF" />
    </linearGradient>
  </defs>
</svg>