<svg width="74" height="49" viewBox="0 0 74 49" fill="none" xmlns="http://www.w3.org/2000/svg">
  <path
    d="M50.043 9.03511C48.9071 9.03773 47.7823 9.25896 46.7302 9.68668C45.5369 4.13902 41.0059 0 35.5798 0C29.3334 0 24.2492 5.49181 24.1249 12.3054C23.564 12.1784 22.9907 12.1139 22.4156 12.113C17.7665 12.113 14 16.2396 14 21.3281C14 25.4981 16.5297 29.0104 19.9916 30.1522C20.7 30.4138 19.9756 30.1634 22.2043 30.5493C24.433 30.9352 46.6277 31.1028 48.4005 30.9352C50.1732 30.7676 52.2456 30.3775 53.0326 30.0467C57.0105 28.6815 59.8696 24.6045 59.8696 19.7891C59.8696 13.8567 55.4629 9.03511 50.043 9.03511ZM51.3403 27.3296C50.3936 27.6597 49.4026 27.8459 48.4005 27.8819C40.7058 28.2108 32.9987 27.7516 25.2979 27.9191C23.8518 27.9865 22.411 27.7027 21.099 27.092C19.7869 26.4814 18.9367 25.9832 18.0586 24.8341C17.1478 23.2312 16.8435 21.3551 17.2009 19.5471C17.7044 17.2573 19.4869 15.2776 22.0042 15.0045C22.8401 14.9251 23.6816 14.7571 24.4344 15.1286C24.7091 15.2332 25.0034 15.2764 25.2966 15.2549C25.5898 15.2335 25.8747 15.148 26.1312 15.0045C26.4922 14.7379 26.7562 14.361 26.8833 13.931C27.2227 12.964 27.2031 12.7901 27.1969 11.7655C27.3192 10.4478 27.9634 8.02172 28.7056 6.92526C29.8736 5.22482 31.6556 4.04174 33.6779 3.62397C34.8113 3.39026 35.9802 3.38628 37.1151 3.61227C38.2501 3.83825 39.328 4.2896 40.2849 4.93952C43.7282 7.26035 44.2689 11.1884 44.3435 11.7655C44.3728 12.0018 44.4649 12.226 44.6103 12.4148C44.7557 12.6035 44.949 12.75 45.1702 12.839C45.3711 12.909 45.5861 12.9285 45.7963 12.8961C46.0066 12.8636 46.2056 12.7801 46.376 12.6529C47.4035 12.1214 48.544 11.8447 49.7012 11.8462C50.8124 11.8988 51.8999 12.186 52.8919 12.6887C53.884 13.1914 54.7581 13.8983 55.4566 14.7627C56.6438 16.2244 57.0765 17.9074 57.0968 19.7891C57.1061 21.3869 56.3745 23.1424 55.5055 24.4841C55.9088 23.7959 55.4061 24.6393 55.5055 24.4841C54.4678 25.8903 53.0031 26.7864 51.3403 27.3296Z"
    fill="url(#paint0_linear)" />
  <path
    d="M41.7035 21.5037L34.6048 11.625C34.3653 11.3295 34.0221 11.1361 33.645 11.0841C33.2678 11.0321 32.885 11.1254 32.5744 11.345C32.2638 11.5647 32.0486 11.8943 31.9726 12.2667C31.8966 12.6391 31.9655 13.0265 32.1653 13.3501L35.2159 17.5958L31.7846 21.5329C31.6244 21.6747 31.4964 21.8491 31.4092 22.0444C31.322 22.2396 31.2775 22.4512 31.2788 22.665C31.2801 22.8788 31.327 23.0898 31.4166 23.2841C31.5061 23.4783 31.6362 23.6512 31.798 23.7912C31.9599 23.9312 32.1498 24.0351 32.3551 24.096C32.5604 24.1568 32.7763 24.1732 32.9885 24.144C33.2006 24.1149 33.404 24.0408 33.5851 23.9268C33.7663 23.8128 33.9209 23.6615 34.0388 23.483L36.9965 20.0969L39.2517 23.2281C39.3659 23.3881 39.5106 23.5242 39.6775 23.6284C39.8444 23.7326 40.0303 23.803 40.2244 23.8354C40.4186 23.8679 40.6172 23.8618 40.809 23.8176C41.0008 23.7734 41.182 23.6918 41.3421 23.5776C41.6614 23.3473 41.8778 23.0016 41.9453 22.6141C42.0129 22.2267 41.9261 21.8282 41.7035 21.5037Z"
    fill="url(#paint1_linear)" />
  <path
    d="M5.516 46.196C8.33 46.196 10.612 43.984 10.612 41.1C10.612 38.216 8.33 36.004 5.516 36.004C2.702 36.004 0.42 38.216 0.42 41.1C0.42 43.984 2.702 46.196 5.516 46.196ZM5.516 44.012C3.92 44.012 2.66 42.85 2.66 41.1C2.66 39.35 3.92 38.188 5.516 38.188C7.112 38.188 8.372 39.35 8.372 41.1C8.372 42.85 7.112 44.012 5.516 44.012ZM13.7228 41.044C13.7228 40.792 13.9468 40.652 14.3108 40.652C14.7728 40.652 15.0528 40.904 15.2488 41.268L17.0408 40.302C16.4528 39.308 15.4448 38.804 14.3108 38.804C12.8548 38.804 11.5668 39.574 11.5668 41.1C11.5668 43.522 15.0108 43.116 15.0108 43.886C15.0108 44.166 14.7588 44.32 14.2548 44.32C13.6388 44.32 13.2468 44.026 13.0648 43.494L11.2448 44.53C11.7908 45.664 12.8548 46.196 14.2548 46.196C15.7668 46.196 17.1668 45.51 17.1668 43.9C17.1668 41.31 13.7228 41.842 13.7228 41.044ZM21.507 46.196C23.565 46.196 25.217 44.586 25.217 42.5C25.217 40.414 23.565 38.804 21.507 38.804C19.449 38.804 17.797 40.414 17.797 42.5C17.797 44.586 19.449 46.196 21.507 46.196ZM21.507 44.152C20.597 44.152 19.897 43.494 19.897 42.5C19.897 41.506 20.597 40.848 21.507 40.848C22.417 40.848 23.117 41.506 23.117 42.5C23.117 43.494 22.417 44.152 21.507 44.152ZM34.2448 38.804C33.2508 38.804 32.6068 39.168 32.2148 39.728C31.8228 39.14 31.2068 38.804 30.3808 38.804C29.4428 38.804 28.8268 39.168 28.5048 39.644V39H26.4048V46H28.5048V42.052C28.5048 41.226 28.8968 40.736 29.5968 40.736C30.2688 40.736 30.6048 41.184 30.6048 41.884V46H32.7048V42.052C32.7048 41.226 33.0968 40.736 33.7968 40.736C34.4688 40.736 34.8048 41.184 34.8048 41.884V46H36.9048V41.702C36.9048 39.952 35.8548 38.804 34.2448 38.804ZM45.9036 39L44.8956 42.752L43.8036 39H41.8436L40.7516 42.752L39.7436 39H37.5036L39.7436 46H41.7036L42.8236 42.262L43.9436 46H45.9036L48.1436 39H45.9036ZM53.7856 39V39.658C53.3236 39.126 52.6376 38.804 51.6996 38.804C49.8656 38.804 48.3536 40.414 48.3536 42.5C48.3536 44.586 49.8656 46.196 51.6996 46.196C52.6376 46.196 53.3236 45.874 53.7856 45.342V46H55.8856V39H53.7856ZM52.1196 44.208C51.1536 44.208 50.4536 43.55 50.4536 42.5C50.4536 41.45 51.1536 40.792 52.1196 40.792C53.0856 40.792 53.7856 41.45 53.7856 42.5C53.7856 43.55 53.0856 44.208 52.1196 44.208ZM59.5263 40.246V39H57.4263V46H59.5263V42.836C59.5263 41.45 60.7583 41.1 61.6263 41.24V38.86C60.7443 38.86 59.8063 39.308 59.5263 40.246ZM64.2788 43.34H69.2488C69.3048 43.074 69.3328 42.794 69.3328 42.5C69.3328 40.386 67.8208 38.804 65.7768 38.804C63.5648 38.804 62.0528 40.414 62.0528 42.5C62.0528 44.586 63.5368 46.196 65.9308 46.196C67.2608 46.196 68.2968 45.706 68.9828 44.754L67.3028 43.788C67.0228 44.096 66.5328 44.32 65.9588 44.32C65.1888 44.32 64.5448 44.068 64.2788 43.34ZM64.2368 41.772C64.4328 41.058 64.9648 40.666 65.7628 40.666C66.3928 40.666 67.0228 40.96 67.2468 41.772H64.2368Z"
    fill="#FFFFFF" />
  <defs>
    <linearGradient id="paint0_linear" x1="64.9102" y1="0.657774" x2="12.0249" y2="35.3867"
      gradientUnits="userSpaceOnUse">
      <stop stop-color="#0F9BE8" />
      <stop offset="1" stop-color="#6924FF" />
    </linearGradient>
    <linearGradient id="paint1_linear" x1="566.242" y1="848.688" x2="748.537" y2="859.112"
      gradientUnits="userSpaceOnUse">
      <stop stop-color="#0B78FF" />
      <stop offset="1" stop-color="#5000FF" />
    </linearGradient>
  </defs>
</svg>