<svg width="211" height="39" viewBox="0 0 211 39" fill="none" xmlns="http://www.w3.org/2000/svg">
  <path
    d="M17.5979 5.8541C18.1966 4.01148 20.8034 4.01148 21.4021 5.8541L23.429 12.0922C23.6967 12.9162 24.4647 13.4742 25.3311 13.4742H31.8902C33.8277 13.4742 34.6332 15.9534 33.0658 17.0922L27.7594 20.9476C27.0584 21.4568 26.7651 22.3596 27.0328 23.1836L29.0597 29.4217C29.6584 31.2643 27.5494 32.7966 25.982 31.6578L20.6756 27.8024C19.9746 27.2932 19.0254 27.2932 18.3244 27.8024L13.018 31.6578C11.4506 32.7966 9.3416 31.2644 9.9403 29.4217L11.9672 23.1836C12.2349 22.3596 11.9416 21.4568 11.2406 20.9476L5.9342 17.0922C4.36677 15.9534 5.17232 13.4742 7.10977 13.4742H13.6689C14.5353 13.4742 15.3033 12.9162 15.571 12.0922L17.5979 5.8541Z"
    fill="#00A5FF" />
  <path
    d="M60.5979 5.8541C61.1966 4.01148 63.8034 4.01148 64.4021 5.8541L66.429 12.0922C66.6967 12.9162 67.4647 13.4742 68.3311 13.4742H74.8902C76.8277 13.4742 77.6332 15.9534 76.0658 17.0922L70.7594 20.9476C70.0584 21.4568 69.7651 22.3596 70.0328 23.1836L72.0597 29.4217C72.6584 31.2643 70.5494 32.7966 68.982 31.6578L63.6756 27.8024C62.9746 27.2932 62.0254 27.2932 61.3244 27.8024L56.018 31.6578C54.4506 32.7966 52.3416 31.2644 52.9403 29.4217L54.9672 23.1836C55.2349 22.3596 54.9416 21.4568 54.2406 20.9476L48.9342 17.0922C47.3668 15.9534 48.1723 13.4742 50.1098 13.4742H56.6689C57.5353 13.4742 58.3033 12.9162 58.571 12.0922L60.5979 5.8541Z"
    fill="#00A5FF" />
  <path
    d="M103.598 5.8541C104.197 4.01148 106.803 4.01148 107.402 5.8541L109.429 12.0922C109.697 12.9162 110.465 13.4742 111.331 13.4742H117.89C119.828 13.4742 120.633 15.9534 119.066 17.0922L113.759 20.9476C113.058 21.4568 112.765 22.3596 113.033 23.1836L115.06 29.4217C115.658 31.2643 113.549 32.7966 111.982 31.6578L106.676 27.8024C105.975 27.2932 105.025 27.2932 104.324 27.8024L99.018 31.6578C97.4506 32.7966 95.3416 31.2644 95.9403 29.4217L97.9672 23.1836C98.2349 22.3596 97.9416 21.4568 97.2406 20.9476L91.9342 17.0922C90.3668 15.9534 91.1723 13.4742 93.1098 13.4742H99.6689C100.535 13.4742 101.303 12.9162 101.571 12.0922L103.598 5.8541Z"
    fill="#00A5FF" />
  <path
    d="M146.598 5.8541C147.197 4.01148 149.803 4.01148 150.402 5.8541L152.429 12.0922C152.697 12.9162 153.465 13.4742 154.331 13.4742H160.89C162.828 13.4742 163.633 15.9534 162.066 17.0922L156.759 20.9476C156.058 21.4568 155.765 22.3596 156.033 23.1836L158.06 29.4217C158.658 31.2643 156.549 32.7966 154.982 31.6578L149.676 27.8024C148.975 27.2932 148.025 27.2932 147.324 27.8024L142.018 31.6578C140.451 32.7966 138.342 31.2644 138.94 29.4217L140.967 23.1836C141.235 22.3596 140.942 21.4568 140.241 20.9476L134.934 17.0922C133.367 15.9534 134.172 13.4742 136.11 13.4742H142.669C143.535 13.4742 144.303 12.9162 144.571 12.0922L146.598 5.8541Z"
    fill="#00A5FF" />
  <path
    d="M189.598 5.8541C190.197 4.01148 192.803 4.01148 193.402 5.8541L195.429 12.0922C195.697 12.9162 196.465 13.4742 197.331 13.4742H203.89C205.828 13.4742 206.633 15.9534 205.066 17.0922L199.759 20.9476C199.058 21.4568 198.765 22.3596 199.033 23.1836L201.06 29.4217C201.658 31.2643 199.549 32.7966 197.982 31.6578L192.676 27.8024C191.975 27.2932 191.025 27.2932 190.324 27.8024L185.018 31.6578C183.451 32.7966 181.342 31.2644 181.94 29.4217L183.967 23.1836C184.235 22.3596 183.942 21.4568 183.241 20.9476L177.934 17.0922C176.367 15.9534 177.172 13.4742 179.11 13.4742H185.669C186.535 13.4742 187.303 12.9162 187.571 12.0922L189.598 5.8541Z"
    fill="#00A5FF" />
</svg>