<svg width="25" height="18" viewBox="0 0 25 18" fill="none" xmlns="http://www.w3.org/2000/svg">
  <path
    d="M24.4985 2.11613C23.5946 2.475 22.6314 2.71288 21.6273 2.82838C22.6603 2.27013 23.4488 1.39287 23.8195 0.3355C22.8563 0.85525 21.7928 1.22238 20.6595 1.42725C19.745 0.545875 18.4415 0 17.0195 0C14.2607 0 12.0396 2.02675 12.0396 4.51137C12.0396 4.86888 12.073 5.21263 12.1551 5.53988C8.01223 5.357 4.34641 3.55988 1.88379 0.82225C1.45386 1.49738 1.20167 2.27012 1.20167 3.102C1.20167 4.664 2.0904 6.04862 3.41514 6.85025C2.61452 6.8365 1.8291 6.62613 1.16369 6.29475C1.16369 6.3085 1.16369 6.32638 1.16369 6.34425C1.16369 8.536 2.89102 10.3565 5.15614 10.7759C4.75051 10.8763 4.30843 10.9244 3.84963 10.9244C3.5306 10.9244 3.20853 10.9079 2.90621 10.8474C3.55187 12.6335 5.38402 13.9466 7.56254 13.9893C5.86712 15.1896 3.71442 15.9129 1.38397 15.9129C0.975311 15.9129 0.583359 15.8964 0.191406 15.851C2.3988 17.1394 5.01485 17.875 7.836 17.875C17.0059 17.875 22.0192 11 22.0192 5.04075C22.0192 4.84137 22.0116 4.64887 22.001 4.45775C22.99 3.8225 23.821 3.02913 24.4985 2.11613Z"
    fill="white" />
</svg>