<svg width="73" height="68" viewBox="0 0 73 68" fill="none" xmlns="http://www.w3.org/2000/svg">
  <circle cx="33.9176" cy="33.6691" r="33.6691" fill="#61FFA4" fill-opacity="0.19" />
  <path
    d="M4.6808 12.502C4.6808 14.494 5.0828 16.072 5.8868 17.236C6.6908 18.4 7.9748 18.982 9.7388 18.982C11.4908 18.982 12.7688 18.4 13.5728 17.236C14.3888 16.072 14.7968 14.494 14.7968 12.502C14.7968 10.522 14.3888 8.956 13.5728 7.804C12.7688 6.64 11.4908 6.058 9.7388 6.058C7.9748 6.058 6.6908 6.64 5.8868 7.804C5.0828 8.956 4.6808 10.522 4.6808 12.502ZM11.7368 12.502C11.7368 13.642 11.5988 14.524 11.3228 15.148C11.0588 15.76 10.5308 16.066 9.7388 16.066C8.9348 16.066 8.3948 15.76 8.1188 15.148C7.8428 14.524 7.7048 13.642 7.7048 12.502C7.7048 11.374 7.8428 10.504 8.1188 9.892C8.3948 9.28 8.9348 8.974 9.7388 8.974C10.5308 8.974 11.0588 9.28 11.3228 9.892C11.5988 10.492 11.7368 11.362 11.7368 12.502ZM25.6608 8.668H19.9368V11.242C20.1888 10.954 20.5368 10.732 20.9808 10.576C21.4368 10.408 21.9288 10.324 22.4568 10.324C23.3088 10.324 24.0228 10.516 24.5988 10.9C25.1748 11.272 25.6008 11.776 25.8768 12.412C26.1528 13.048 26.2908 13.75 26.2908 14.518C26.2908 15.91 25.9008 17.014 25.1208 17.83C24.3408 18.634 23.2428 19.036 21.8268 19.036C20.8668 19.036 20.0328 18.868 19.3248 18.532C18.6168 18.184 18.0708 17.704 17.6868 17.092C17.3028 16.48 17.0988 15.772 17.0748 14.968H20.0808C20.1408 15.376 20.3028 15.712 20.5668 15.976C20.8428 16.24 21.2148 16.372 21.6828 16.372C22.2228 16.372 22.6248 16.198 22.8888 15.85C23.1648 15.502 23.3028 15.04 23.3028 14.464C23.3028 13.912 23.1588 13.486 22.8708 13.186C22.5828 12.886 22.1808 12.736 21.6648 12.736C21.2688 12.736 20.9388 12.826 20.6748 13.006C20.4108 13.174 20.2308 13.396 20.1348 13.672H17.1468V5.968H25.6608V8.668Z"
    fill="#06D85F" />
  <path
    d="M47.9307 37.7378L47.9307 37.7378L45.7042 33.2846L45.7042 33.2846C45.103 32.0827 43.3823 32.0809 42.7805 33.2846L40.5539 37.7377C40.5539 37.7377 40.5539 37.7378 40.5539 37.7378C40.1502 38.545 40.4773 39.5269 41.2846 39.9304C42.0919 40.3342 43.0738 40.007 43.4776 39.1998L43.4776 39.1997L44.2422 37.6703L45.0071 39.1997C45.0071 39.1997 45.0071 39.1997 45.0071 39.1998C45.4109 40.0074 46.3925 40.3342 47.1997 39.9307L47.1998 39.9307C48.007 39.5269 48.3342 38.5451 47.9307 37.7378ZM44.2422 25.85C38.5118 25.85 33.85 30.5118 33.85 36.2422C33.85 41.4167 37.6513 45.719 42.6078 46.5054V62.5156C42.6078 63.4184 43.3395 64.15 44.2422 64.15C45.1449 64.15 45.8766 63.4184 45.8766 62.5156V46.5054C50.8331 45.719 54.6344 41.4167 54.6344 36.2422C54.6344 30.5118 49.9726 25.85 44.2422 25.85ZM44.2422 43.3656C40.3146 43.3656 37.1188 40.1701 37.1188 36.2422C37.1188 32.3143 40.3146 29.1188 44.2422 29.1188C48.1698 29.1188 51.3656 32.3143 51.3656 36.2422C51.3656 40.1701 48.1698 43.3656 44.2422 43.3656ZM72.15 53.7578C72.15 48.5833 68.3487 44.281 63.3922 43.4946V27.5586C63.3922 26.6559 62.6605 25.9242 61.7578 25.9242C60.8551 25.9242 60.1234 26.6559 60.1234 27.5586V43.4946C55.1669 44.281 51.3656 48.5833 51.3656 53.7578C51.3656 59.4882 56.0274 64.15 61.7578 64.15C67.4882 64.15 72.15 59.4882 72.15 53.7578ZM61.7578 60.8812C57.8302 60.8812 54.6344 57.6857 54.6344 53.7578C54.6344 49.8299 57.8302 46.6344 61.7578 46.6344C65.6854 46.6344 68.8812 49.8299 68.8812 53.7578C68.8812 57.6857 65.6854 60.8812 61.7578 60.8812ZM63.9844 53.1656C64.8871 53.1656 65.6187 52.434 65.6187 51.5312C65.6187 50.6285 64.8871 49.8969 63.9844 49.8969H59.5312C58.6285 49.8969 57.8969 50.6285 57.8969 51.5312C57.8969 52.434 58.6285 53.1656 59.5312 53.1656H63.9844ZM63.9844 57.6187C64.8871 57.6187 65.6187 56.8871 65.6187 55.9844C65.6187 55.0816 64.8871 54.35 63.9844 54.35H59.5312C58.6285 54.35 57.8969 55.0816 57.8969 55.9844C57.8969 56.8871 58.6285 57.6187 59.5312 57.6187H63.9844Z"
    fill="#06D85F" stroke="#06D85F" stroke-width="0.3" />
  <circle cx="19.8849" cy="44.3364" r="8" transform="rotate(47.6091 19.8849 44.3364)" fill="#11DD67"
    fill-opacity="0.19" />
  <circle cx="11.9875" cy="31.2353" r="3" transform="rotate(47.6091 11.9875 31.2353)" fill="#11DD67"
    fill-opacity="0.19" />
</svg>