<svg width="70" height="68" viewBox="0 0 70 68" fill="none" xmlns="http://www.w3.org/2000/svg">
  <circle cx="34.4708" cy="33.6691" r="33.6691" fill="#6924FF" fill-opacity="0.12" />
  <path
    d="M1.756 12.502C1.756 14.494 2.158 16.072 2.962 17.236C3.766 18.4 5.05 18.982 6.814 18.982C8.566 18.982 9.844 18.4 10.648 17.236C11.464 16.072 11.872 14.494 11.872 12.502C11.872 10.522 11.464 8.956 10.648 7.804C9.844 6.64 8.566 6.058 6.814 6.058C5.05 6.058 3.766 6.64 2.962 7.804C2.158 8.956 1.756 10.522 1.756 12.502ZM8.812 12.502C8.812 13.642 8.674 14.524 8.398 15.148C8.134 15.76 7.606 16.066 6.814 16.066C6.01 16.066 5.47 15.76 5.194 15.148C4.918 14.524 4.78 13.642 4.78 12.502C4.78 11.374 4.918 10.504 5.194 9.892C5.47 9.28 6.01 8.974 6.814 8.974C7.606 8.974 8.134 9.28 8.398 9.892C8.674 10.492 8.812 11.362 8.812 12.502ZM12.782 9.154V6.274H17.93V19H14.69V9.154H12.782Z"
    fill="#6924FF" />
  <path
    d="M64.939 31C62.1484 31 59.878 33.3138 59.878 36.1578C59.878 36.8706 60.0208 37.5498 60.2784 38.1679L50.5591 48.0731C49.8912 47.7414 49.1415 47.5549 48.3499 47.5549C47.5771 47.5549 46.8446 47.733 46.1889 48.0499L39.7348 41.4723C39.9585 40.8905 40.0827 40.258 40.0827 39.5961C40.0827 36.7521 37.8123 34.4383 35.0217 34.4383C32.231 34.4383 29.9607 36.7521 29.9607 39.5961C29.9607 40.3667 30.1285 41.0977 30.4271 41.755L24.2367 48.0638C23.5773 47.7423 22.8394 47.5619 22.061 47.5619C19.2704 47.5619 17 49.8757 17 52.7197C17 55.5637 19.2704 57.8775 22.061 57.8775C24.8516 57.8775 27.122 55.5637 27.122 52.7197C27.122 51.9225 26.9435 51.167 26.6253 50.4926L32.7812 44.219C33.4571 44.5608 34.2176 44.7539 35.022 44.7539C35.9305 44.7539 36.7829 44.5075 37.5206 44.0787L43.7927 50.4707C43.4701 51.149 43.289 51.9096 43.289 52.7127C43.289 55.5566 45.5593 57.8704 48.3499 57.8704C51.1406 57.8704 53.4109 55.5566 53.4109 52.7127C53.4109 51.929 53.2378 51.186 52.9296 50.5203L62.5582 40.7076C63.2682 41.0951 64.0788 41.3155 64.939 41.3155C67.7296 41.3155 70 39.0018 70 36.1578C70 33.3138 67.7296 31 64.939 31ZM22.0608 54.4391C21.1306 54.4391 20.3738 53.6679 20.3738 52.7199C20.3738 51.7719 21.1306 51.0006 22.0608 51.0006C22.5138 51.0006 22.9246 51.1844 23.2279 51.4815C23.2346 51.4887 23.2405 51.4965 23.2475 51.5035C23.2555 51.5118 23.2643 51.5186 23.2726 51.5265C23.5661 51.836 23.7478 52.2565 23.7478 52.7199C23.7478 53.6677 22.991 54.4391 22.0608 54.4391ZM35.0217 41.3154C34.0915 41.3154 33.3347 40.5441 33.3347 39.5961C33.3347 38.6481 34.0915 37.8768 35.0217 37.8768C35.9519 37.8768 36.7087 38.6481 36.7087 39.5961C36.7087 40.5441 35.9519 41.3154 35.0217 41.3154ZM48.3496 54.4319C47.4194 54.4319 46.6626 53.6606 46.6626 52.7127C46.6626 51.7647 47.4194 50.9934 48.3496 50.9934C49.2798 50.9934 50.0366 51.7647 50.0366 52.7127C50.0366 53.6606 49.2798 54.4319 48.3496 54.4319ZM64.9387 37.8768C64.0085 37.8768 63.2517 37.1056 63.2517 36.1576C63.2517 35.2096 64.0086 34.4383 64.9387 34.4383C65.8689 34.4383 66.6257 35.2096 66.6257 36.1576C66.6257 37.1056 65.8689 37.8768 64.9387 37.8768Z"
    fill="#6924FF" />
  <circle cx="52" cy="17" r="8" fill="#6924FF" fill-opacity="0.23" />
  <circle cx="37" cy="14" r="3" fill="#6924FF" fill-opacity="0.23" />
</svg>