<svg width="70" height="68" viewBox="0 0 70 68" fill="none" xmlns="http://www.w3.org/2000/svg">
  <circle cx="34.5289" cy="33.6691" r="33.6691" fill="#FF00E5" fill-opacity="0.1" />
  <path
    d="M9.81264 12.502C9.81264 14.494 10.2146 16.072 11.0186 17.236C11.8226 18.4 13.1066 18.982 14.8706 18.982C16.6226 18.982 17.9006 18.4 18.7046 17.236C19.5206 16.072 19.9286 14.494 19.9286 12.502C19.9286 10.522 19.5206 8.956 18.7046 7.804C17.9006 6.64 16.6226 6.058 14.8706 6.058C13.1066 6.058 11.8226 6.64 11.0186 7.804C10.2146 8.956 9.81264 10.522 9.81264 12.502ZM16.8686 12.502C16.8686 13.642 16.7306 14.524 16.4546 15.148C16.1906 15.76 15.6626 16.066 14.8706 16.066C14.0666 16.066 13.5266 15.76 13.2506 15.148C12.9746 14.524 12.8366 13.642 12.8366 12.502C12.8366 11.374 12.9746 10.504 13.2506 9.892C13.5266 9.28 14.0666 8.974 14.8706 8.974C15.6626 8.974 16.1906 9.28 16.4546 9.892C16.7306 10.492 16.8686 11.362 16.8686 12.502ZM27.8406 9.784C27.7566 9.268 27.5886 8.878 27.3366 8.614C27.0966 8.35 26.7486 8.218 26.2926 8.218C25.5966 8.218 25.0986 8.542 24.7986 9.19C24.5106 9.826 24.3786 10.81 24.4026 12.142C24.6066 11.65 24.9546 11.266 25.4466 10.99C25.9506 10.702 26.5326 10.558 27.1926 10.558C28.3926 10.558 29.3406 10.924 30.0366 11.656C30.7326 12.376 31.0806 13.414 31.0806 14.77C31.0806 15.622 30.9066 16.378 30.5586 17.038C30.2106 17.698 29.6946 18.214 29.0106 18.586C28.3386 18.946 27.5286 19.126 26.5806 19.126C24.7206 19.126 23.4366 18.55 22.7286 17.398C22.0206 16.246 21.6666 14.65 21.6666 12.61C21.6666 10.258 22.0446 8.53 22.8006 7.426C23.5566 6.31 24.7866 5.752 26.4906 5.752C27.8346 5.752 28.8546 6.136 29.5506 6.904C30.2466 7.66 30.6366 8.62 30.7206 9.784H27.8406ZM24.6366 14.626C24.6366 15.178 24.7926 15.628 25.1046 15.976C25.4166 16.312 25.8726 16.48 26.4726 16.48C27.0126 16.48 27.4326 16.33 27.7326 16.03C28.0446 15.73 28.2006 15.292 28.2006 14.716C28.2006 14.14 28.0446 13.702 27.7326 13.402C27.4206 13.09 26.9946 12.934 26.4546 12.934C25.9386 12.934 25.5066 13.084 25.1586 13.384C24.8106 13.672 24.6366 14.086 24.6366 14.626Z"
    fill="#FF00E5" />
  <path
    d="M66.9336 27.5286C66.4203 27.0149 65.7192 26.7314 64.96 26.7314C64.107 26.7314 63.2478 27.0908 62.589 27.7203L59.7615 30.0154L59.6515 30.1153C59.0263 30.7395 58.7803 31.6165 58.9316 32.4998L52.3401 38.9L51.2339 37.9428C52.0268 34.8419 51.9292 30.7112 49.255 28.037C47.2968 26.0788 44.7913 25 42.2007 25C41.1709 25 40.1532 25.172 39.1753 25.5108C38.7274 25.666 38.3843 26.0312 38.2579 26.4882C38.1315 26.9452 38.2377 27.4344 38.5414 27.7982L42.0941 32.0442L41.9191 34.7751L38.9667 35.112L34.7519 31.5858C34.3881 31.2811 33.8985 31.1749 33.4415 31.3023C32.9845 31.4291 32.6193 31.7722 32.4641 32.2201C31.3127 35.5449 32.3271 39.1259 35.2473 42.0442C36.8206 43.6185 39.0859 44.4503 41.7971 44.4503C41.9955 44.4503 42.1954 44.4402 42.3954 44.4306C42.2949 44.518 42.194 44.6045 42.0989 44.6997L34.0003 52.7977C31.7519 55.0461 31.7519 58.704 34.0003 60.9524L35.3588 62.3109C36.4477 63.4003 37.8961 64 39.4362 64C40.9763 64 42.4247 63.4003 43.5136 62.3109L51.6116 54.2124C52.0604 53.7641 52.4136 53.26 52.6798 52.7213L59.873 61.0327C59.8961 61.0591 59.9201 61.0841 59.9441 61.1091C60.7505 61.9149 61.9605 62.359 63.3531 62.359C65.045 62.359 66.7625 61.6934 67.8346 60.6218C69.7192 58.7371 70.3132 54.7271 68.3209 52.7333C68.2954 52.7088 68.2709 52.6848 68.2445 52.6631L57.7711 43.6012L63.8134 37.3787C63.9797 37.407 64.146 37.421 64.3137 37.421C65.0373 37.421 65.7053 37.1504 66.1954 36.6607L68.5905 33.7232C69.1387 33.1504 69.4818 32.4282 69.5616 31.6804C69.6544 30.8049 69.3704 29.9659 68.7827 29.3787L66.9336 27.5286ZM49.5732 52.174L41.4751 60.2725C40.9307 60.8169 40.2065 61.1168 39.4362 61.1168C38.6659 61.1168 37.9422 60.8169 37.3973 60.2725L36.0388 58.914C34.9148 57.7895 34.9148 55.9606 36.0388 54.8371L44.1373 46.7381C44.6818 46.1937 45.4059 45.8938 46.1757 45.8938C46.4021 45.8938 46.6236 45.9236 46.8384 45.9731L50.4127 50.1033C50.4213 50.8515 50.1431 51.604 49.5732 52.174ZM65.7952 58.5834C65.2613 59.1173 64.2795 59.4757 63.3521 59.4757C62.7702 59.4757 62.2728 59.3349 62.01 59.0966L46.725 41.4358C46.342 40.9933 45.7288 40.826 45.1753 41.013C44.0989 41.3753 42.9307 41.5666 41.7966 41.5666C39.8946 41.5666 38.2925 41.012 37.2858 40.0048C36.3747 39.0937 35.095 37.482 34.9038 35.4724L37.59 37.7198C37.8927 37.9736 38.2853 38.0913 38.6789 38.0466L43.4434 37.5026C44.1368 37.4234 44.6741 36.8592 44.7183 36.1624L45.0071 31.6531C45.0306 31.2835 44.9115 30.9198 44.6741 30.6362L42.3728 27.8856C44.133 27.9337 45.8466 28.7069 47.2151 30.0754C49.0979 31.9587 49.0571 35.4858 48.2219 37.9664C48.0349 38.5209 48.2022 39.1336 48.6448 39.5166L66.3079 54.8015C66.9485 55.5026 66.7971 57.581 65.7952 58.5834ZM66.4943 31.7444L64.2324 34.518C64.2089 34.5089 64.1825 34.4964 64.1536 34.4791L63.1748 33.8976L55.5885 41.7112L54.528 40.7938L62.4136 33.1365L61.8326 32.1586C61.8158 32.1288 61.8024 32.1024 61.7942 32.0793L64.4569 29.9173L64.5674 29.8174C64.7111 29.6747 64.8547 29.6252 64.9441 29.617L66.6962 31.3691C66.6904 31.4411 66.6438 31.5944 66.4943 31.7444Z"
    fill="#FF00E5" />
  <circle cx="15.9165" cy="35.9166" r="8" transform="rotate(-119.775 15.9165 35.9166)" fill="#FF00E5"
    fill-opacity="0.19" />
  <circle cx="20.7612" cy="50.4263" r="3" transform="rotate(-119.775 20.7612 50.4263)" fill="#FF00E5"
    fill-opacity="0.19" />
</svg>