<svg width="70" height="68" viewBox="0 0 70 68" fill="none" xmlns="http://www.w3.org/2000/svg">
  <circle cx="33.694" cy="33.6691" r="33.6691" fill="#EB5757" fill-opacity="0.1" />
  <path
    d="M66.0909 50.7096V48.31C66.0909 45.1053 63.4605 42.4982 60.2273 42.4982H50.4545V38.2904C52.7295 37.4907 54.3636 35.3374 54.3636 32.8118C54.3636 29.6072 51.7332 27 48.5 27C45.2668 27 42.6364 29.6072 42.6364 32.8118C42.6364 35.3374 44.2705 37.4907 46.5455 38.2904V42.4982H36.7727C33.5395 42.4982 30.9091 45.1053 30.9091 48.31V50.7096C28.6341 51.5093 27 53.6626 27 56.1882C27 59.3928 29.6304 62 32.8636 62C36.0968 62 38.7273 59.3928 38.7273 56.1882C38.7273 53.6626 37.0931 51.5093 34.8182 50.7096V48.31C34.8182 47.2418 35.695 46.3727 36.7727 46.3727H46.5455V50.7096C44.2705 51.5093 42.6364 53.6626 42.6364 56.1882C42.6364 59.3928 45.2668 62 48.5 62C51.7332 62 54.3636 59.3928 54.3636 56.1882C54.3636 53.6626 52.7295 51.5093 50.4545 50.7096V46.3727H60.2273C61.305 46.3727 62.1818 47.2418 62.1818 48.31V50.7096C59.9069 51.5093 58.2727 53.6626 58.2727 56.1882C58.2727 59.3928 60.9032 62 64.1364 62C67.3696 62 70 59.3928 70 56.1882C70 53.6626 68.3659 51.5093 66.0909 50.7096ZM32.8636 58.1255C31.7859 58.1255 30.9091 57.2564 30.9091 56.1882C30.9091 55.12 31.7859 54.2509 32.8636 54.2509C33.9414 54.2509 34.8182 55.12 34.8182 56.1882C34.8182 57.2564 33.9414 58.1255 32.8636 58.1255ZM48.5 58.1255C47.4223 58.1255 46.5455 57.2564 46.5455 56.1882C46.5455 55.12 47.4223 54.2509 48.5 54.2509C49.5777 54.2509 50.4545 55.12 50.4545 56.1882C50.4545 57.2564 49.5777 58.1255 48.5 58.1255ZM48.5 34.7491C47.4223 34.7491 46.5455 33.88 46.5455 32.8118C46.5455 31.7436 47.4223 30.8745 48.5 30.8745C49.5777 30.8745 50.4545 31.7436 50.4545 32.8118C50.4545 33.88 49.5777 34.7491 48.5 34.7491ZM64.1364 58.1255C63.0586 58.1255 62.1818 57.2564 62.1818 56.1882C62.1818 55.12 63.0586 54.2509 64.1364 54.2509C65.2141 54.2509 66.0909 55.12 66.0909 56.1882C66.0909 57.2564 65.2141 58.1255 64.1364 58.1255Z"
    fill="#EB5757" />
  <path
    d="M2.01479 12.502C2.01479 14.494 2.41679 16.072 3.22079 17.236C4.02479 18.4 5.30879 18.982 7.07279 18.982C8.82479 18.982 10.1028 18.4 10.9068 17.236C11.7228 16.072 12.1308 14.494 12.1308 12.502C12.1308 10.522 11.7228 8.956 10.9068 7.804C10.1028 6.64 8.82479 6.058 7.07279 6.058C5.30879 6.058 4.02479 6.64 3.22079 7.804C2.41679 8.956 2.01479 10.522 2.01479 12.502ZM9.07079 12.502C9.07079 13.642 8.93279 14.524 8.65679 15.148C8.39279 15.76 7.86479 16.066 7.07279 16.066C6.26879 16.066 5.72879 15.76 5.45279 15.148C5.17679 14.524 5.03879 13.642 5.03879 12.502C5.03879 11.374 5.17679 10.504 5.45279 9.892C5.72879 9.28 6.26879 8.974 7.07279 8.974C7.86479 8.974 8.39279 9.28 8.65679 9.892C8.93279 10.492 9.07079 11.362 9.07079 12.502ZM18.2788 5.716C19.1668 5.716 19.9288 5.872 20.5648 6.184C21.2008 6.484 21.6808 6.904 22.0048 7.444C22.3408 7.972 22.5088 8.572 22.5088 9.244C22.5088 10.072 22.2928 10.738 21.8608 11.242C21.4408 11.746 20.9128 12.064 20.2768 12.196V12.286C21.9208 12.814 22.7428 13.84 22.7428 15.364C22.7428 16.096 22.5748 16.75 22.2388 17.326C21.9028 17.89 21.4108 18.334 20.7628 18.658C20.1268 18.97 19.3588 19.126 18.4588 19.126C16.9948 19.126 15.8308 18.766 14.9668 18.046C14.1148 17.326 13.6528 16.228 13.5808 14.752H16.5868C16.6108 15.316 16.7668 15.76 17.0548 16.084C17.3428 16.408 17.7628 16.57 18.3148 16.57C18.7588 16.57 19.1068 16.438 19.3588 16.174C19.6228 15.91 19.7548 15.568 19.7548 15.148C19.7548 14.104 18.9988 13.582 17.4868 13.582H16.9108V11.08H17.4688C18.8248 11.104 19.5028 10.618 19.5028 9.622C19.5028 9.19 19.3828 8.86 19.1428 8.632C18.9148 8.392 18.6028 8.272 18.2068 8.272C17.7748 8.272 17.4328 8.422 17.1808 8.722C16.9288 9.01 16.7848 9.4 16.7488 9.892H13.7428C13.8028 8.548 14.2228 7.516 15.0028 6.796C15.7828 6.076 16.8748 5.716 18.2788 5.716Z"
    fill="#EB5757" />
  <circle cx="21.2975" cy="28.3865" r="8" transform="rotate(131.953 21.2975 28.3865)" fill="#EB5757"
    fill-opacity="0.26" />
  <circle cx="33.5563" cy="19.2367" r="3" transform="rotate(131.953 33.5563 19.2367)" fill="#EB5757"
    fill-opacity="0.26" />
</svg>