<svg width="69" height="68" viewBox="0 0 69 68" fill="none" xmlns="http://www.w3.org/2000/svg">
  <circle cx="34.0826" cy="33.6691" r="33.6691" fill="#F2C94C" fill-opacity="0.27" />
  <path
    d="M63.1625 52.855L63.1626 52.855C63.4943 52.5146 63.6797 52.0543 63.6797 51.5755V46.554C66.3206 45.7651 68.25 43.2632 68.25 40.3125C68.2501 36.7342 65.4104 33.8125 61.9063 33.8125C58.4022 33.8125 55.5625 36.7342 55.5625 40.3125C55.5625 43.2632 57.492 45.7651 60.1329 46.554V50.8267L54.8736 56.2206C54.184 56.928 54.184 58.0722 54.8736 58.7795C55.5666 59.4901 56.693 59.4903 57.3862 58.7794L63.1625 52.855ZM48.5 24.75C44.9959 24.75 42.1562 27.6717 42.1562 31.25C42.1562 34.2007 44.0857 36.7026 46.7266 37.4915V63.4375C46.7266 64.4325 47.5146 65.25 48.5 65.25C49.4854 65.25 50.2734 64.4325 50.2734 63.4375V37.4915C52.9144 36.7026 54.8438 34.2007 54.8438 31.25C54.8438 27.6717 52.0041 24.75 48.5 24.75ZM48.5 34.125C46.9639 34.125 45.7031 32.8411 45.7031 31.25C45.7031 29.6589 46.9639 28.375 48.5 28.375C50.0361 28.375 51.2969 29.6589 51.2969 31.25C51.2969 32.8411 50.0361 34.125 48.5 34.125ZM42.1264 56.2206L36.8672 50.8267V46.554C39.5081 45.7651 41.4375 43.2632 41.4375 40.3125C41.4375 36.7342 38.5979 33.8125 35.0938 33.8125C31.5897 33.8125 28.75 36.7342 28.75 40.3125C28.75 43.2632 30.6794 45.7651 33.3203 46.554V51.5755C33.3203 52.0543 33.5057 52.5146 33.8375 52.855L39.6139 58.7794C40.3069 59.4902 41.4333 59.4902 42.1264 58.7794C42.816 58.0721 42.816 56.9279 42.1264 56.2206C42.1264 56.2206 42.1264 56.2206 42.1264 56.2206ZM32.2969 40.3125C32.2969 38.7214 33.5577 37.4375 35.0938 37.4375C36.6298 37.4375 37.8907 38.7214 37.8907 40.3125C37.8907 41.9036 36.6298 43.1875 35.0938 43.1875C33.5577 43.1875 32.2969 41.9036 32.2969 40.3125ZM61.9063 43.1875C60.3702 43.1875 59.1094 41.9036 59.1094 40.3125C59.1094 38.7214 60.3702 37.4375 61.9063 37.4375C63.4424 37.4375 64.7032 38.7214 64.7032 40.3125C64.7032 41.9036 63.4424 43.1875 61.9063 43.1875Z"
    fill="#FFB800" stroke="#FFC000" stroke-width="0.5" />
  <path
    d="M1.36635 12.502C1.36635 14.494 1.76835 16.072 2.57235 17.236C3.37635 18.4 4.66035 18.982 6.42435 18.982C8.17635 18.982 9.45435 18.4 10.2584 17.236C11.0744 16.072 11.4824 14.494 11.4824 12.502C11.4824 10.522 11.0744 8.956 10.2584 7.804C9.45435 6.64 8.17635 6.058 6.42435 6.058C4.66035 6.058 3.37635 6.64 2.57235 7.804C1.76835 8.956 1.36635 10.522 1.36635 12.502ZM8.42235 12.502C8.42235 13.642 8.28435 14.524 8.00835 15.148C7.74435 15.76 7.21635 16.066 6.42435 16.066C5.62035 16.066 5.08035 15.76 4.80435 15.148C4.52835 14.524 4.39035 13.642 4.39035 12.502C4.39035 11.374 4.52835 10.504 4.80435 9.892C5.08035 9.28 5.62035 8.974 6.42435 8.974C7.21635 8.974 7.74435 9.28 8.00835 9.892C8.28435 10.492 8.42235 11.362 8.42235 12.502ZM12.8063 16.552C16.6223 13.828 18.5303 11.662 18.5303 10.054C18.5303 9.07 18.1043 8.578 17.2523 8.578C16.7723 8.578 16.4183 8.746 16.1903 9.082C15.9743 9.418 15.8543 9.94 15.8303 10.648H12.8243C12.8963 9.1 13.3643 7.936 14.2283 7.156C15.0923 6.376 16.1843 5.986 17.5043 5.986C18.8843 5.986 19.9223 6.334 20.6183 7.03C21.3263 7.726 21.6803 8.632 21.6803 9.748C21.6803 10.984 21.2063 12.196 20.2583 13.384C19.3103 14.56 18.1763 15.556 16.8563 16.372H21.8783V18.856H12.8063V16.552Z"
    fill="#FFC000" />
  <circle cx="13.3751" cy="38.9792" r="8" transform="rotate(92.7523 13.3751 38.9792)" fill="#FFB800"
    fill-opacity="0.32" />
  <circle cx="17.0918" cy="24.1406" r="3" transform="rotate(92.7523 17.0918 24.1406)" fill="#FFB800"
    fill-opacity="0.32" />
</svg>