<svg width="76" height="68" viewBox="0 0 76 68" fill="none" xmlns="http://www.w3.org/2000/svg">
  <path
    d="M2.91713 12.502C2.91713 14.494 3.31913 16.072 4.12313 17.236C4.92713 18.4 6.21113 18.982 7.97513 18.982C9.72713 18.982 11.0051 18.4 11.8091 17.236C12.6251 16.072 13.0331 14.494 13.0331 12.502C13.0331 10.522 12.6251 8.956 11.8091 7.804C11.0051 6.64 9.72713 6.058 7.97513 6.058C6.21113 6.058 4.92713 6.64 4.12313 7.804C3.31913 8.956 2.91713 10.522 2.91713 12.502ZM9.97313 12.502C9.97313 13.642 9.83513 14.524 9.55913 15.148C9.29513 15.76 8.76713 16.066 7.97513 16.066C7.17113 16.066 6.63113 15.76 6.35513 15.148C6.07913 14.524 5.94113 13.642 5.94113 12.502C5.94113 11.374 6.07913 10.504 6.35513 9.892C6.63113 9.28 7.17113 8.974 7.97513 8.974C8.76713 8.974 9.29513 9.28 9.55913 9.892C9.83513 10.492 9.97313 11.362 9.97313 12.502ZM14.5371 16.66V14.086L20.3511 6.112H23.6631V13.978H25.1931V16.66H23.6631V19H20.5491V16.66H14.5371ZM20.8011 9.676L17.6691 13.978H20.8011V9.676Z"
    fill="#00A5FF" />
  <circle cx="34.3058" cy="33.6691" r="33.6691" fill="#00A5FF" fill-opacity="0.18" />
  <path
    d="M31.3146 46.5724L43.0095 51.8358C43.3118 51.9712 43.6337 52.04 43.9664 52.04C44.3999 52.04 44.8224 51.9208 45.1896 51.6948C45.8472 51.288 46.24 50.5949 46.24 49.8407V49.7829C46.24 48.9303 45.7237 48.1473 44.9245 47.7881L37.6101 44.4991L44.9245 41.2096C45.7237 40.8501 46.24 40.0673 46.24 39.2151V39.1578C46.24 38.4025 45.8472 37.709 45.1896 37.3037C44.8261 37.0789 44.4025 36.96 43.9651 36.96C43.6353 36.96 43.3046 37.0301 43.0085 37.1632L31.3144 42.4261C30.5159 42.7856 30 43.5688 30 44.4207V44.578C29.9998 45.4286 30.5154 46.2114 31.3146 46.5724Z"
    fill="#00A5FF" />
  <path
    d="M46.6933 58.0484C47.1356 58.6441 47.847 59 48.5963 59H48.657C49.6858 59 50.5871 58.3518 50.9006 57.3886L58.8883 33.0277C59.1174 32.3246 58.9904 31.5486 58.5479 30.9517C58.1056 30.3557 57.3942 30 56.6447 30H56.5842C55.555 30 54.6527 30.648 54.3392 31.6112L46.3508 55.974C46.1234 56.678 46.2514 57.453 46.6933 58.0484Z"
    fill="#00A5FF" />
  <path
    d="M59 39.3883C59 40.3052 59.5159 41.1484 60.3153 41.5375L67.6295 45.079L60.3153 48.6207C59.5163 49.0079 59 49.8511 59 50.7689V50.8311C59 51.6436 59.3925 52.39 60.0507 52.8282C60.4167 53.0713 60.8394 53.2 61.2733 53.2C61.6057 53.2 61.9274 53.126 62.2318 52.9793L73.9256 47.3112C74.7241 46.9231 75.24 46.0801 75.24 45.1636V44.9942C75.24 44.0768 74.7241 43.2334 73.9249 42.8462L62.231 37.1785C61.9361 37.0355 61.6057 36.96 61.2759 36.96C60.8394 36.96 60.4152 37.0877 60.0517 37.3294C59.3934 37.7666 59.0006 38.5132 59.0006 39.3267L59 39.3883Z"
    fill="#00A5FF" />
  <circle cx="44.7049" cy="18.8245" r="8" transform="rotate(-28.09 44.7049 18.8245)" fill="#00A5FF"
    fill-opacity="0.2" />
  <circle cx="30.0592" cy="23.2406" r="3" transform="rotate(-28.09 30.0592 23.2406)" fill="#00A5FF"
    fill-opacity="0.2" />
</svg>